inDegrees=no
num_controls=7
num_derivatives=13
num_iterations=102
num_multipliers=7
num_parameters=0
num_slacks=7
num_states=26
objective=0.516986
objective_accelerations=0.039583
objective_balance=0.002172
objective_effort=0.043786
objective_height=0.419803
objective_ligament=0.011642
solver_duration=1356.361811
status=Solve_Succeeded
success=true
DataType=double
version=3
OpenSimVersion=4.5
endheader
time	/jointset/ground_pelvis/pelvis_tilt/value	/jointset/ground_pelvis/pelvis_tx/value	/jointset/ground_pelvis/pelvis_ty/value	/jointset/hip_l/hip_flexion_l/value	/jointset/hip_l/hip_adduction_l/value	/jointset/hip_l/hip_rotation_l/value	/jointset/back/lumbar_extension/value	/jointset/patellofemoral_l/patellar_flexion_l/value	/jointset/knee_l/knee_flexion_l/value	/jointset/knee_l/knee_adduction_l/value	/jointset/knee_l/knee_rotation_l/value	/jointset/ankle_l/ankle_angle_l/value	/jointset/subtalar_l/subtalar_angle_l/value	/jointset/ground_pelvis/pelvis_tilt/speed	/jointset/ground_pelvis/pelvis_tx/speed	/jointset/ground_pelvis/pelvis_ty/speed	/jointset/hip_l/hip_flexion_l/speed	/jointset/hip_l/hip_adduction_l/speed	/jointset/hip_l/hip_rotation_l/speed	/jointset/back/lumbar_extension/speed	/jointset/patellofemoral_l/patellar_flexion_l/speed	/jointset/knee_l/knee_flexion_l/speed	/jointset/knee_l/knee_adduction_l/speed	/jointset/knee_l/knee_rotation_l/speed	/jointset/ankle_l/ankle_angle_l/speed	/jointset/subtalar_l/subtalar_angle_l/speed	/forceset/tau_hip_flexion_l	/forceset/tau_hip_adduction_l	/forceset/tau_hip_rotation_l	/forceset/tau_knee_flexion_l	/forceset/tau_ankle_angle_l	/forceset/tau_subtalar_angle_l	/forceset/tau_lumbar_extension	lambda_cid13_p0	lambda_cid13_p1	lambda_cid13_p2	lambda_cid13_p3	lambda_cid13_p4	lambda_cid13_p5	lambda_cid14_p0	/jointset/ground_pelvis/pelvis_tilt/accel	/jointset/ground_pelvis/pelvis_tx/accel	/jointset/ground_pelvis/pelvis_ty/accel	/jointset/hip_l/hip_flexion_l/accel	/jointset/hip_l/hip_adduction_l/accel	/jointset/hip_l/hip_rotation_l/accel	/jointset/back/lumbar_extension/accel	/jointset/patellofemoral_l/patellar_flexion_l/accel	/jointset/knee_l/knee_flexion_l/accel	/jointset/knee_l/knee_adduction_l/accel	/jointset/knee_l/knee_rotation_l/accel	/jointset/ankle_l/ankle_angle_l/accel	/jointset/subtalar_l/subtalar_angle_l/accel	gamma_cid13_p0	gamma_cid13_p1	gamma_cid13_p2	gamma_cid13_p3	gamma_cid13_p4	gamma_cid13_p5	gamma_cid14_p0
1	-0.1601461191355575	-0.08859927494451819	0.7276823878854238	1.253773310013782	-0.3282409257150562	-0.002545096858946368	-0.9599300399801584	1.162404540913003	1.162404540913252	-0.08060944957483465	-0.1745313521775444	0.1475972106172885	0.01329886994070055	0.1077480955380103	0.02610353784319524	0.06872888924903321	-0.2989346789123336	0.0007820282983206392	-0.06763571516961879	-0.002016864703262373	-0.1715656399305772	-0.1715656399305544	0.002456014171256437	-4.688635732661632e-05	0.01097306633448496	0.005962132698969785	-0.4020625408617107	0.03510714465762199	-0.005213399356519306	-0.2902848635672796	0.1010185291470625	0.02892434262714864	0.4382780054863651	-18.18105687028726	-8.837295888230592	0.3364475138878986	5.603215892902209	-787.6556557209449	-56.02953384614503	-1.753643609011884	1.065917563095596	0.1897614635480475	1.258837040469221	-4.69240497132914	-0.01067620427064648	-1.41133787699976	0.3708082024111853	-4.146938797313689	-4.146938797313781	-0.202939448669264	-0.001818637943802705	-0.7912491735757849	-0.2796739457424787	-9.193321940044882e-09	-1.190238647977659e-08	4.047837470013668e-08	1.935077349956259e-09	-2.027733100714786e-08	5.187432357145583e-08	-1.154279623739133e-08
1.01	-0.1590161877049152	-0.08832871310258199	0.7284322696328287	1.250550962663906	-0.32823305697519	-0.003292070449947158	-0.9599304571455709	1.160482210926062	1.160482210926111	-0.0805939312754694	-0.1745313077571014	0.1476675035864252	0.01334522633252324	0.1181985352273067	0.02801494567100301	0.08122356838172624	-0.3454517144845755	0.0007960556685246358	-0.08174197771824257	0.002000880256862582	-0.2128634044336548	-0.2128634044336338	0.0006436206451262438	5.087663992837539e-05	0.003081091510929005	0.003312149001308538	-0.4010641032954745	0.03522872984531623	-0.005249392854680541	-0.2899840097512389	0.1010081011783286	0.02899919380825532	0.4377802645429212	-18.13525704287627	-8.886745313366255	0.3545225396378117	5.421503887020412	-787.0279448733789	-56.08958248832599	-1.793569268452437	1.028657105412341	0.192748460490901	1.241194918380525	-4.61889363866338	0.008090497665581061	-1.40773010880486	0.4273749226953319	-4.115649262752037	-4.115649262752235	-0.1710009987741805	0.01485253017363282	-0.7888379702453443	-0.2572132937062882	-1.310570224834312e-08	-1.983123262942616e-08	5.495781009718448e-08	3.729474921155702e-09	-2.323821857767877e-08	5.849266337194943e-08	-1.526430069815178e-08
1.02	-0.1577829418906781	-0.08803885357874891	0.7293063804853031	1.246865936800559	-0.3282249183036313	-0.004179598599417723	-0.9598886734045926	1.158148012496897	1.158148012496784	-0.08059665925017721	-0.1745304299543929	0.1476587435406263	0.01336517234498344	0.1284109722592444	0.02996307422257034	0.09357471026294946	-0.3914703815964872	0.0008360146387098237	-0.09574662686732062	0.006423316412292847	-0.2539393283746238	-0.2539393283746043	-0.001193240648576403	0.0001197901017203527	-0.00483753665262251	0.0006800568265121128	-0.4000656657294022	0.03535031503301815	-0.005285386352728227	-0.289683155935202	0.1009976732096262	0.02907404498938069	0.4372825235993216	-18.10010319949666	-8.934427818650564	0.372426838170236	5.276131024795413	-786.5448637825566	-56.14235878619414	-1.842643267547367	1.018317031624064	0.1971056082997941	1.230129590175208	-4.592731279262996	-0.005489884274394216	-1.391015197090589	0.4517464414710802	-4.102570684891977	-4.102570684891985	-0.2078330021837509	-0.007588545036388922	-0.796579841575156	-0.2760956411695912	-1.790524334982354e-08	-2.851439298787426e-08	6.40579104288303e-08	8.465398500361693e-09	-3.012157899281781e-08	6.208804232486271e-08	-1.788629628947496e-08
1.03	-0.156448384830807	-0.08772918510839536	0.7303033974112905	1.242722480284858	-0.3282162289231439	-0.005206726302405421	-0.959800361231124	1.155404010107627	1.155404010107529	-0.08061786697435121	-0.1745290032613577	0.1475708739429989	0.01335899184443523	0.1384988136522014	0.03199127498798136	0.1058161875499584	-0.4372125941499638	0.0009085128913513831	-0.1096719328093594	0.01133454692905005	-0.2948403474362339	-0.2948403474362044	-0.003047963686246285	0.0001596466715936364	-0.01271976655979569	-0.00190240792619149	-0.3998573230291023	0.03567025495805748	-0.005332017602984139	-0.2890626329494982	0.1009249515387213	0.02921187354945749	0.4376834252749074	-18.10550036468913	-9.007879109595162	0.4007421122416979	4.918981878779008	-786.5829877062542	-56.19227483834118	-1.901156241929607	1.003771883207334	0.2087782563740238	1.219276239198554	-4.563719988853006	0.0146148714457984	-1.392260060740003	0.5251256539263821	-4.080743094970781	-4.080743094969233	-0.1742526587208581	0.008904386928765624	-0.7815545083730322	-0.2472619641601848	-2.271383711245889e-08	-3.720525043008563e-08	7.310311958633934e-08	1.323133765107797e-08	-3.704496464106511e-08	6.565257473851494e-08	-2.049707240253856e-08
1.04	-0.1550129985190036	-0.08739861444124511	0.7314224529983956	1.238121850894498	-0.3282066155218543	-0.006372901418396745	-0.9596600738930541	1.152251622412101	1.152251622412043	-0.08065761406970812	-0.1745273516768654	0.1474046800576823	0.01332739868199183	0.1485768226482144	0.03414351358191106	0.1179824424864733	-0.482904956521952	0.001020818800486592	-0.1235561094705867	0.01681834933177449	-0.3356163896248554	-0.335616389624816	-0.004901114890409367	0.0001647683986473282	-0.02050239419035663	-0.004402475552475034	-0.399648980328887	0.0359901948830988	-0.0053786488530744	-0.2884421099637956	0.1008522298678314	0.02934970210953967	0.4380843269504109	-18.12165708035347	-9.079645235942031	0.429015789689208	4.596802222121252	-786.76827795182	-56.23585727436928	-1.969447541501755	1.016350552235469	0.2219131740033784	1.215085120076356	-4.58276124296525	0.002471647024324075	-1.382789340928299	0.5662608186645676	-4.077575310294246	-4.077575310294265	-0.2075186354823974	-0.01453551360034308	-0.7766593862529394	-0.2596162158856755	-2.547036148394569e-08	-4.517191104547904e-08	8.308482648458822e-08	1.37800117884568e-08	-3.991171349081152e-08	6.76592892090375e-08	-2.316404850517654e-08
1.05	-0.1534775576388077	-0.0870458889525464	0.7326626494696162	1.233065432092846	-0.3281956602919678	-0.007677523267680299	-0.9594611417332627	1.148692187963241	1.14869218796318	-0.08071601745499052	-0.1745257583221887	0.1471610396857918	0.01327119543814632	0.1584403735168367	0.03642354659403649	0.1300296106571276	-0.5282799544306259	0.001180383893369899	-0.1373466956943136	0.02316011846414653	-0.3762404970142276	-0.3762404970141845	-0.006786301669738351	0.0001549135810302865	-0.02822034771403021	-0.006824539664063807	-0.3993097155338018	0.03634672862520821	-0.005432454056925681	-0.2876533844200882	0.1008624260283252	0.02951885637604476	0.4385206627145882	-18.09301667559013	-9.176567874424986	0.4655356094022411	4.175640403400664	-786.7289880679491	-56.30098155567308	-2.047932616813962	0.9607079969595769	0.2343455734748669	1.195437942354383	-4.500045108001408	0.02421851564980733	-1.373982366819018	0.6969403362891969	-4.050322789689746	-4.050322789689122	-0.1800444512609541	0.005962386170786935	-0.7685665455199771	-0.2314586871873658	-2.816275868695912e-08	-5.311594051003439e-08	9.309579893723522e-08	1.419689639416885e-08	-4.265169244060479e-08	6.961732186883728e-08	-2.583278085748872e-08
1.06	-0.1518456111213802	-0.08666970369199468	0.7340224986779027	1.227558228103454	-0.3281828054961115	-0.009119408799940623	-0.9591930308069906	1.144727413573197	1.144727413573148	-0.08079347785846339	-0.1745242289453014	0.1468403791366447	0.01319118011750623	0.1678779500968447	0.03883546795251043	0.1419129898996899	-0.5730619940666034	0.001400731995436117	-0.1510088460670165	0.03065410262717894	-0.4166843778608421	-0.4166843778607953	-0.008712518533184364	0.0001519728439370895	-0.03590642964152256	-0.009164890911330758	-0.3989704507387524	0.03670326236730808	-0.005486259260591728	-0.2868646588763803	0.100872622188822	0.02968801064253713	0.4389569984787294	-18.07517236914608	-9.271921016553295	0.5021717115808625	3.787681436770773	-786.8383413177751	-56.36123263328947	-2.137037608846502	0.9311556945127784	0.2482908432729492	1.182327334457916	-4.46416958842591	0.0146282488608759	-1.357102170723527	0.7967038247967185	-4.041530001742699	-4.041530001742688	-0.2157246523058185	-0.01315269749564701	-0.7702850670168989	-0.2432736430214182	-3.066123534294226e-08	-6.15349530656996e-08	9.722319348063125e-08	1.541796797367815e-08	-4.691579069960502e-08	6.949328392260137e-08	-2.75332521091167e-08
